# xmcd
#
# Track frame offsets: 
#        150
#        16676
#        34945
#        49990
#        63966
#        77482
#        88848
#        108262
#        119248
#        131446
#        143060
#        156632
#        166769
#        179065
#        195350
#        209099
#
# Disc length: 2973 seconds
#
# Revision: 2
# Processed by: cddbd v1.5.2PL0 Copyright (c) Steve Scherf et al.
# Submitted via: ExactAudioCopyFreeDBPlugin 1.0
#
DISCID=e30b9b10
DTITLE=Shirley Collins and Davy Graham - Folk Roots, New Routes
DYEAR=1964
DGENRE=British Folk
TTITLE0=Nottamun Town
TTITLE1=Proud Maisrie
TTITLE2=The Cherry Tree Carol
TTITLE3=Blue Monk
TTITLE4=Hares on the Mountain
TTITLE5=Reynardine
TTITLE6=Pretty Saro
TTITLE7=Rif Mountain
TTITLE8=Jane, Jane
TTITLE9=Love Is Pleasin'
TTITLE10=Boll Weevil, Holler
TTITLE11=Hori Horo
TTITLE12=Bad Girl
TTITLE13=Lord Greggory
TTITLE14=Grooveyard
TTITLE15=Dearest Dear
EXTD=
EXTT0=
EXTT1=
EXTT2=
EXTT3=
EXTT4=
EXTT5=
EXTT6=
EXTT7=
EXTT8=
EXTT9=
EXTT10=
EXTT11=
EXTT12=
EXTT13=
EXTT14=
EXTT15=
PLAYORDER=
